<?xml version="1.0" standalone="no"?><!DOCTYPE svg PUBLIC "-//W3C//DTD SVG 1.1//EN" "http://www.w3.org/Graphics/SVG/1.1/DTD/svg11.dtd"><svg t="1679136115895" class="icon" viewBox="0 0 1024 1024" version="1.1" xmlns="http://www.w3.org/2000/svg" p-id="2880" xmlns:xlink="http://www.w3.org/1999/xlink" width="200" height="200"><path d="M512 597.333333c-23.330133 0-43.52-8.533333-60.586667-25.6-16.503467-16.503467-24.746667-36.420267-24.746666-59.733333 0-23.330133 8.2432-43.52 24.746666-60.586667 17.066667-16.503467 37.256533-24.746667 60.586667-24.746666s43.229867 8.2432 59.733333 24.746666c17.066667 17.066667 25.6 37.256533 25.6 60.586667 0 23.313067-8.533333 43.229867-25.6 59.733333-16.503467 17.066667-36.4032 25.6-59.733333 25.6zM426.683733 878.08c-2.7648 0-5.5808-0.341333-8.379733-1.041067-64.3584-16.247467-122.2144-49.698133-171.9296-99.413333-49.134933-49.169067-82.295467-106.410667-98.542933-170.171733a34.167467 34.167467 0 0 1 24.644266-41.5232 34.1504 34.1504 0 0 1 41.506134 24.644266c13.175467 51.712 40.328533 98.4064 80.674133 138.769067 40.891733 40.874667 88.1152 68.3008 140.373333 81.476267a34.133333 34.133333 0 0 1 24.7296 41.454933 34.133333 34.133333 0 0 1-33.0752 25.8048z m173.192534-0.853333a34.133333 34.133333 0 0 1-8.4992-67.191467c51.182933-13.175467 97.604267-40.311467 137.984-80.6912 40.311467-40.328533 67.464533-87.022933 80.674133-138.769067a33.9968 33.9968 0 0 1 41.506133-24.6272 34.0992 34.0992 0 0 1 24.6272 41.506134c-16.264533 63.7952-49.425067 121.053867-98.525866 170.171733-49.134933 49.117867-106.069333 82.261333-169.216 98.5088a33.774933 33.774933 0 0 1-8.5504 1.092267z m244.036266-415.573334a34.133333 34.133333 0 0 1-33.0752-25.856c-13.192533-52.7872-40.618667-100.283733-81.4592-141.1584-40.311467-40.277333-86.6304-67.1232-137.659733-79.752533a34.133333 34.133333 0 0 1 16.401067-66.269867c63.266133 15.650133 120.302933 48.5376 169.540266 97.7408 49.732267 49.749333 83.182933 107.912533 99.4304 172.868267a34.133333 34.133333 0 0 1-33.1776 42.427733z m-662.971733 0a34.1504 34.1504 0 0 1-33.2288-42.120533c15.650133-65.092267 48.8448-123.357867 98.6624-173.1584 49.800533-49.800533 107.758933-82.9952 172.2368-98.645333a34.133333 34.133333 0 1 1 16.110933 66.3552c-52.138667 12.6464-99.259733 39.748267-140.0832 80.554666-40.789333 40.789333-67.8912 88.183467-80.5376 140.8512a34.1504 34.1504 0 0 1-33.160533 26.1632z" p-id="2881"></path><path d="M512 955.733333a17.066667 17.066667 0 0 1-17.066667-17.066666v-85.333334a17.066667 17.066667 0 1 1 34.133334 0v85.333334a17.066667 17.066667 0 0 1-17.066667 17.066666z m0-341.333333c-27.904 0-52.343467-10.308267-72.6528-30.600533C419.601067 564.0704 409.6 539.921067 409.6 512c0-27.8016 9.949867-52.1728 29.5424-72.448C459.8272 419.549867 484.1984 409.6 512 409.6c27.921067 0 52.0704 10.001067 71.799467 29.7472C604.091733 459.656533 614.4 484.096 614.4 512c0 28.023467-10.359467 52.258133-30.805333 72.004267C564.258133 604.040533 540.023467 614.4 512 614.4z m0-170.666667c-18.8928 0-34.850133 6.519467-48.708267 19.950934C450.2528 477.149867 443.733333 493.1072 443.733333 512c0 18.7904 6.4512 34.389333 19.746134 47.6672C477.354667 573.525333 493.2096 580.266667 512 580.266667c18.670933 0 34.2016-6.673067 47.4624-20.394667C573.5936 546.2016 580.266667 530.670933 580.266667 512c0-18.7904-6.741333-34.645333-20.599467-48.520533C546.389333 450.184533 530.7904 443.733333 512 443.733333z m426.666667 85.333334h-85.333334a17.066667 17.066667 0 1 1 0-34.133334h85.333334a17.066667 17.066667 0 1 1 0 34.133334z m-768 0H85.333333a17.066667 17.066667 0 1 1 0-34.133334h85.333334a17.066667 17.066667 0 0 1 0 34.133334z m341.333333-341.333334a17.066667 17.066667 0 0 1-17.066667-17.066666V85.333333a17.066667 17.066667 0 0 1 34.133334 0v85.333334a17.066667 17.066667 0 0 1-17.066667 17.066666z" p-id="2882"></path></svg>